<svg version="1.1" viewBox="0.0 0.0 720.0 540.0" fill="none" stroke="none" stroke-linecap="square" stroke-miterlimit="10" xmlns:xlink="http://www.w3.org/1999/xlink" xmlns="http://www.w3.org/2000/svg"><clipPath id="p.0"><path d="m0 0l720.0 0l0 540.0l-720.0 0l0 -540.0z" clip-rule="nonzero"/></clipPath><g clip-path="url(#p.0)"><path fill="#000000" fill-opacity="0.0" d="m0 0l720.0 0l0 540.0l-720.0 0z" fill-rule="evenodd"/><path fill="#a64d79" d="m70.34646 270.0l0 0c0 -145.88144 129.68231 -264.14172 289.65353 -264.14172l0 0c159.97125 0 289.65356 118.260284 289.65356 264.14172l0 0c0 145.88144 -129.68231 264.14172 -289.65356 264.14172l0 0c-159.97124 0 -289.65353 -118.260284 -289.65353 -264.14172z" fill-rule="evenodd"/><path stroke="#a64d79" stroke-width="1.0" stroke-linejoin="round" stroke-linecap="butt" d="m70.34646 270.0l0 0c0 -145.88144 129.68231 -264.14172 289.65353 -264.14172l0 0c159.97125 0 289.65356 118.260284 289.65356 264.14172l0 0c0 145.88144 -129.68231 264.14172 -289.65356 264.14172l0 0c-159.97124 0 -289.65353 -118.260284 -289.65353 -264.14172z" fill-rule="evenodd"/><path fill="#000000" fill-opacity="0.0" d="m185.63774 60.33065l348.72437 0l0 419.33856l-348.72437 0z" fill-rule="evenodd"/><path fill="#ffffff" d="m233.13858 164.17126q-6.6875 14.5 -6.6875 28.96875q0 28.734375 18.875 34.921875q5.75 1.515625 11.890625 1.515625q6.140625 0 12.359375 -1.546875q12.796875 -3.375 22.6875 -9.96875q9.890625 -6.59375 12.234375 -12.078125q8.484375 -19.703125 19.625 -19.703125q7.140625 0 9.4375 7.421875q1.09375 2.734375 0.546875 5.96875q-1.921875 15.03125 -8.25 29.6875q-6.3125 14.65625 -14.125 27.53125q16.0625 0.125 34.953125 4.90625q6.875 1.640625 6.875 6.375q0 6.984375 -10.234375 4.515625q-12.421875 -3.25 -36.1875 -3.25q-2.25 0 -2.828125 0q-10.65625 15.359375 -30.1875 28.34375q-19.515625 13.0 -38.0625 17.828125q-10.375 2.7344055 -17.875 2.7344055q-7.5 0 -12.796875 -1.921875q-16.171875 -5.9687805 -16.171875 -16.890656q0 -3.28125 1.640625 -6.828125q5.65625 -12.53125 28.46875 -22.65625q16.71875 -7.484375 35.109375 -10.171875q18.40625 -2.671875 38.890625 -3.015625q12.40625 -20.921875 17.296875 -42.9375l2.84375 0.65625q-4.90625 8.734375 -16.59375 15.59375q-11.6875 6.84375 -20.484375 9.59375q-14.0 4.46875 -23.328125 4.46875q-9.328125 0 -16.46875 -2.640625q-13.234375 -4.5625 -21.4375 -18.0625q-8.578125 -14.0 -8.578125 -33.0625q0 -19.078125 8.765625 -38.15625q-11.578125 -11.90625 -11.578125 -27.718742q0 -15.8125 12.578125 -29.8125q4.453125 -4.84375 8.578125 -2.203125q4.140625 2.625 -0.15625 8.59375q-7.640625 10.203125 -7.640625 20.296875q0 11.640617 5.390625 21.296867q-1.859375 -1.109375 1.25 -6.15625q15.125 -24.812492 41.09375 -38.015617q20.4375 -10.5 39.65625 -10.5q5.328125 0 10.65625 0.796875q26.03125 4.03125 35.328125 21.796875q3.8125 7.1875 3.8125 15.546875q0 8.359367 -5.171875 17.671867q-11.265625 19.5 -38.90625 27.203125q-14.3125 4.0625 -29.234375 4.0625q-31.40625 0 -47.859375 -11.0zm75.671875 -62.546867q-14.96875 0 -31.96875 10.28125q-25.34375 15.109375 -37.984375 40.515617q5.578125 4.28125 16.4375 6.9375q10.875 2.65625 17.3125 2.65625q37.71875 0 56.71875 -19.875q9.015625 -9.703125 9.015625 -18.999992q0 -14.3125 -16.5 -19.4375q-6.53125 -2.078125 -13.03125 -2.078125zm-102.328125 199.21875q0 2.078125 5.9375 3.3125q2.59375 0.640625 5.671875 0.640625q12.40625 0 31.984375 -9.15625q24.796875 -11.328125 34.921875 -25.796875q-11.65625 0.328125 -26.171875 2.71875q-20.484375 3.046875 -39.015625 14.9375q-13.328125 8.546875 -13.328125 13.34375zm170.45706 -125.390625q17.5 0 17.5 21.046875q0 8.6875 -4.4375 18.375q-5.515625 12.828125 -14.4375 21.265625q0 -0.03125 3.984375 -0.03125q3.3125 0 6.6875 -3.796875q5.296875 -5.484375 7.59375 -9.625q2.3125 -4.15625 3.390625 -6.140625q1.078125 -2.0 2.8125 -5.765625q1.75 -3.765625 2.625 -5.734375q0.890625 -1.96875 4.140625 -1.96875q5.9375 -0.59375 5.9375 5.1875q0 1.46875 -0.734375 2.9375l-1.078125 2.484375q-1.15625 2.734375 -1.75 3.90625q-0.578125 1.15625 -2.015625 4.125q-1.421875 2.953125 -2.515625 4.734375q-1.09375 1.765625 -2.9375 4.6875q-1.84375 2.921875 -3.390625 4.765625q-1.53125 1.84375 -3.8125 4.140625q-2.28125 2.28125 -4.5625 3.640625q-5.578125 3.34375 -10.765625 3.34375q-9.390625 0 -12.484375 -3.5q-6.765625 5.0 -15.328125 5.0q-17.5 0 -17.5 -21.046875q0 -8.6875 4.4375 -18.375q5.9375 -13.796875 16.96875 -23.71875q11.046875 -9.9375 21.671875 -9.9375zm2.046875 13.53125q-3.453125 0 -9.546875 5.921875q-6.09375 5.921875 -11.203125 16.890625q-6.171875 12.65625 -6.171875 18.859375q0 6.203125 2.671875 6.203125q3.203125 0 5.265625 -1.796875q-1.6875 -2.4375 -1.6875 -8.609375q0.546875 -11.796875 10.40625 -11.796875q4.109375 0 6.796875 2.84375q2.6875 2.84375 2.6875 5.265625q0 2.40625 -4.25 3.40625q-0.203125 -6.59375 3.796875 -14.9375q4.28125 -8.734375 4.28125 -15.484375q0 -6.765625 -3.046875 -6.765625zm60.48297 -13.53125q17.5 0 17.5 21.046875q0 8.6875 -4.4375 18.375q-5.515625 12.828125 -14.4375 21.265625q0 -0.03125 3.984375 -0.03125q3.3125 0 6.6875 -3.796875q5.296875 -5.484375 7.59375 -9.625q2.3125 -4.15625 3.390625 -6.140625q1.078125 -2.0 2.8125 -5.765625q1.75 -3.765625 2.625 -5.734375q0.890625 -1.96875 4.140625 -1.96875q5.9375 -0.59375 5.9375 5.1875q0 1.46875 -0.734375 2.9375l-1.078125 2.484375q-1.15625 2.734375 -1.75 3.90625q-0.578125 1.15625 -2.015625 4.125q-1.421875 2.953125 -2.515625 4.734375q-1.09375 1.765625 -2.9375 4.6875q-1.84375 2.921875 -3.390625 4.765625q-1.53125 1.84375 -3.8125 4.140625q-2.28125 2.28125 -4.5625 3.640625q-5.578125 3.34375 -10.765625 3.34375q-9.390625 0 -12.484375 -3.5q-6.765625 5.0 -15.328125 5.0q-17.5 0 -17.5 -21.046875q0 -8.6875 4.4375 -18.375q5.9375 -13.796875 16.96875 -23.71875q11.046875 -9.9375 21.671875 -9.9375zm2.046875 13.53125q-3.453125 0 -9.546875 5.921875q-6.09375 5.921875 -11.203125 16.890625q-6.171875 12.65625 -6.171875 18.859375q0 6.203125 2.671875 6.203125q3.203125 0 5.265625 -1.796875q-1.6875 -2.4375 -1.6875 -8.609375q0.546875 -11.796875 10.40625 -11.796875q4.109375 0 6.796875 2.84375q2.6875 2.84375 2.6875 5.265625q0 2.40625 -4.25 3.40625q-0.203125 -6.59375 3.796875 -14.9375q4.28125 -8.734375 4.28125 -15.484375q0 -6.765625 -3.046875 -6.765625zm69.77985 44.84375q0 2.09375 0.96875 2.09375q6.375 0 19.859375 -27.15625q0.515625 -1.015625 1.28125 -2.84375q0.765625 -1.84375 4.28125 -3.125q3.515625 -1.296875 4.953125 1.953125q1.453125 3.25 0.078125 6.671875q-15.953125 37.109375 -33.8125 37.109375q-7.109375 0 -11.0 -5.828125q-3.890625 -5.828125 -3.890625 -11.046875q0 -5.21875 4.8125 -8.46875q-8.28125 21.1875 -17.34375 23.984375q-2.78125 1.171875 -5.578125 1.171875q-2.796875 0 -5.34375 -0.703125q-12.0 -3.171875 -12.0 -18.296875q0 -8.984375 4.453125 -19.59375q4.46875 -10.625 12.6875 -20.4375q8.21875 -9.828125 20.109375 -13.3125q4.421875 -1.484375 10.53125 -1.484375q6.109375 0 10.078125 2.046875q10.84375 -20.390625 19.71875 -40.578125q3.03125 -7.15625 6.515625 -9.593742q3.484375 -2.453125 6.234375 -2.453125q2.765625 0 3.375 0q0.609375 0 3.578125 0.453125q2.984375 0.453125 16.046875 -1.015625q-12.671875 11.515617 -30.828125 45.109367q-23.359375 43.375 -28.109375 57.640625q-1.65625 4.796875 -1.65625 7.703125zm0.484375 -48.390625q0.75 0.75 -2.140625 0.75q-2.875 0 -9.640625 5.625q-11.921875 9.984375 -19.78125 24.625q-4.953125 9.21875 -4.953125 14.78125q0 2.078125 0.46875 3.03125q0.46875 0.9375 0.6875 0.9375q4.359375 0 13.03125 -12.15625q8.6875 -12.15625 22.328125 -37.59375z" fill-rule="nonzero"/><path fill="#ffffff" d="m304.40256 381.8907l-19.96875 -0.1875q-23.1875 0 -35.921875 11.015625q-14.875 12.671875 -14.875 29.171875q0 7.5625 3.453125 13.765625q3.46875 6.1875 12.859375 10.421875q9.390625 4.21875 26.25 4.21875q16.875 0 35.859375 -7.234375q19.0 -7.234375 31.984375 -17.328125q13.8125 -10.78125 13.8125 -17.84375q0 -1.21875 -4.28125 -2.1875q-4.265625 -0.984375 -4.8125 -4.78125q-1.390625 -6.546875 4.75 -6.171875q6.140625 0.359375 8.9375 1.890625q10.4375 5.5625 10.4375 14.984375q0 12.328125 -15.5 24.53125q-15.484375 12.1875 -38.140625 19.09375q-22.640625 6.90625 -42.453125 6.90625q-19.8125 0 -32.328125 -3.90625q-22.90625 -7.109375 -29.921875 -26.4375q-1.90625 -5.125 -1.90625 -9.8125q0 -4.6875 1.625 -11.3125q1.640625 -6.625 7.265625 -15.0625q5.625 -8.4375 16.078125 -15.53125q10.453125 -7.109375 22.265625 -10.53125q11.828125 -3.421875 12.390625 -1.3125q-2.359375 1.390625 -9.8125 -5.421875q-7.4375 -6.8125 -7.4375 -15.421875q0 -0.5625 0 -1.296875q1.453125 -16.96875 18.109375 -29.765625q16.671875 -12.796875 34.46875 -17.53125q17.796875 -4.75 30.8125 -4.75q4.09375 0 8.0625 0.390625q16.734375 2.03125 24.5625 8.875q7.828125 6.84375 7.828125 14.59375q0 10.25 -10.6875 18.875q-10.6875 8.609375 -25.203125 11.78125q-3.78125 0.84375 -8.421875 0.84375q-4.640625 0 -3.65625 -5.921875q1.609375 -4.875 7.9375 -5.609375q6.34375 -0.75 10.75 -3.890625q9.078125 -6.65625 10.328125 -16.875q0 -0.328125 0 -0.890625q0 -2.90625 -3.1875 -5.703125q-4.546875 -4.234375 -16.75 -4.234375q-12.203125 0 -25.75 4.015625q-13.546875 4.015625 -24.875 13.21875q-12.765625 10.421875 -12.765625 22.203125q0 4.140625 2.53125 7.625q2.53125 3.46875 8.109375 5.390625q5.59375 1.90625 11.703125 3.359375q17.40625 3.609375 17.40625 11.609375q0 8.171875 -11.921875 8.171875zm140.39044 8.375q-12.90625 12.859375 -18.796875 24.203125q-5.890625 11.34375 -7.015625 16.765625q-1.109375 5.40625 -1.65625 7.453125q-0.53125 2.046875 -0.53125 0.96875q1.6875 0 5.75 -5.078125q7.375 -9.1875 14.625 -24.046875q1.546875 -3.4375 4.125 -3.953125q6.4375 -2.4375 6.4375 4.859375q0 1.71875 -0.921875 3.859375q-18.28125 36.96875 -32.4375 36.96875q-7.546875 0 -12.078125 -7.0625q-2.25 -3.78125 -2.25 -9.234375q0 -5.46875 5.734375 -11.65625q-12.78125 27.953125 -25.75 27.953125q-4.328125 0 -7.71875 -2.625q-7.171875 -5.015625 -7.171875 -16.5625q0 -19.6875 16.78125 -39.65625q9.796875 -11.40625 24.03125 -14.859375q4.0 -1.0625 7.671875 -1.0625q10.1875 0 17.375 7.1875q3.546875 3.90625 1.78125 8.328125q-1.75 4.421875 -9.65625 3.203125q-1.921875 -6.296875 -5.953125 -6.296875q-6.34375 0 -16.921875 11.421875q-6.4375 7.140625 -12.03125 16.890625q-6.75 11.265625 -6.75 16.0625q0 4.796875 0.796875 4.796875q8.859375 0 25.859375 -32.25q3.796875 -7.40625 7.0 -10.71875q3.203125 -3.3125 8.578125 -3.3125q1.09375 0 3.9375 0.515625q2.84375 0.515625 17.15625 -3.0625zm-12.654694 42.8125q0 -16.25 13.03125 -48.015625l-3.921875 0q-3.890625 0 -4.75 -3.125q-0.859375 -3.125 0.421875 -5.921875q1.28125 -2.796875 4.703125 -2.796875l8.6875 0q5.78125 -12.65625 11.828125 -22.984375q6.046875 -10.34375 11.734375 -14.390625q5.703125 -4.0625 8.828125 -4.0625q3.125 0 4.875 0.671875q6.640625 3.1875 6.640625 11.28125q0 8.078125 -4.5 17.65625q-4.5 9.578125 -5.671875 11.828125l2.5625 0q3.875 0 4.734375 3.125q0.859375 3.125 -0.421875 5.921875q-1.28125 2.796875 -4.6875 2.796875l-8.625 0q-9.421875 15.953125 -23.515625 28.953125l-4.03125 17.875q-0.46875 2.0 -0.46875 3.625q0 1.625 0.53125 2.609375q0.53125 0.96875 1.015625 0.96875q2.140625 0 4.96875 -1.609375q8.03125 -6.03125 18.40625 -26.609375q1.390625 -3.078125 5.25 -4.484375q3.859375 -1.421875 4.65625 2.15625q0.8125 3.578125 -0.4375 6.6875q-6.3125 13.21875 -9.984375 18.8125q-11.1875 18.03125 -24.734375 18.03125q-7.546875 0 -12.34375 -5.5q-4.78125 -5.515625 -4.78125 -13.5zm39.125 -59.859375q10.71875 -19.171875 10.71875 -26.75q2.5625 -2.421875 2.5625 0.140625q-0.03125 0 -3.546875 5.0q-3.515625 5.0 -10.84375 21.609375l1.109375 0zm-7.0625 11.84375l0.6875 0q-1.21875 2.84375 -4.59375 8.53125q-1.046875 -0.40625 3.90625 -8.53125zm32.45627 58.8125q0.140625 -2.90625 0.765625 -2.90625q5.640625 0 11.75 -7.359375q3.6562805 -4.515625 13.4687805 -23.59375q1.28125 -3.203125 4.625 -3.203125q5.765625 -0.640625 5.765625 5.171875q0 1.25 -1.015625 3.375q-1.0 2.125 -1.765625 3.921875q-0.75 1.796875 -2.484375 5.28125q-1.734375 3.46875 -3.0 5.609375q-1.25 2.125 -3.28125 5.359375q-2.015625 3.234375 -4.1875 5.1875l-3.84375 4.03125q-3.9062805 3.890625 -9.0781555 5.46875q-7.984375 2.59375 -14.328125 0.78125q-3.75 1.640625 -7.921875 1.640625q-16.21875 0 -19.828125 -13.390625q-0.65625 -2.921875 -0.65625 -7.21875q0 -4.3125 3.234375 -8.71875q3.234375 -4.421875 5.484375 -4.578125q8.484375 -16.109375 15.15625 -30.59375q8.53125 -18.109375 20.875 -18.109375q3.5 0 8.0937805 2.234375q4.609375 2.21875 2.40625 7.21875q-2.1875 5.0 -5.6562805 3.421875q-3.453125 -1.578125 -4.0625 -1.578125q-0.609375 0 -0.96875 0.171875q-4.15625 1.953125 -4.15625 9.40625q0 4.390625 1.3125 7.359375q1.3125 2.953125 3.1875 6.875q4.640625 10.515625 4.640625 17.484375q0 7.328125 -4.4375 14.109375q-4.4375 6.765625 -10.09375 7.140625zm-9.421875 -5.234375q4.828125 -3.734375 4.828125 -16.015625q0 -5.53125 -1.3125 -15.609375q-1.296875 -10.078125 -1.296875 -13.875q0 -3.796875 4.046875 -4.859375q-10.734375 30.171875 -13.625 32.21875q3.875 -1.5625 3.875 7.921875q0 8.546875 3.484375 10.21875zm-9.640625 -0.515625q0 0.84375 0.109375 1.59375q0.59375 2.0 3.109375 2.0q1.328125 0 1.84375 3.046875q-8.765625 -1.984375 -7.4375 -9.0625q2.375 0.109375 2.375 2.421875z" fill-rule="nonzero"/></g></svg>